# xmcd
#
# Track frame offsets:
#	150
#	12246
#	25142
#	43523
#	59134
#	72921
#	86951
#	101573
#	114706
#	127304
#
# Disc length: 1860 seconds
#
# Revision: 1
# Processed by: cddbd v1.5.2PL0 Copyright (c) Steve Scherf et al.
# Submitted via: audiograbber 1.83.01
#
DISCID=9207420a
DTITLE=Various Artist - rebel #1 hits
DYEAR=1900
DGENRE=
TTITLE0=johnny paycheck - take this job and shove it
TTITLE1=merle haggard - the fightin' side of me
TTITLE2=johnny cash - one piece at a time
TTITLE3=willie nelson - mamas don't let your babies grow up to be cowboys
TTITLE4=tanya tucker - blood red and goin' down
TTITLE5=ronnie mcdowell - you're gonna ruin my bad reputation
TTITLE6=jeanie c. riley - harper valley p.t.a.
TTITLE7=hank williams - jambalaya (on the bayou)
TTITLE8=al dexter - pistol packin' mama
TTITLE9=moe bandy - just good ol' boys
EXTD=
EXTT0=
EXTT1=
EXTT2=
EXTT3=
EXTT4=
EXTT5=
EXTT6=
EXTT7=
EXTT8=
EXTT9=
PLAYORDER=
